<?xml version="1.0" encoding="UTF-8"?>
<svg version="1.1" xmlns="http://www.w3.org/2000/svg" width="43" height="40">
<path d="M0 0 C11.13558215 -1.3749728 11.13558215 -1.3749728 15.57421875 1.8984375 C17.5735247 4.18230271 19.33238259 6.46574677 21 9 C21.99 10.485 21.99 10.485 23 12 C27.91153298 10.05328761 30.56439403 6.06330154 33.87890625 2.1171875 C36 0 36 0 39 0 C37.18476315 5.52594201 33.61495029 9.10205419 29.80078125 13.37890625 C27.76826758 15.73248667 27.76826758 15.73248667 28.18994141 17.88183594 C29.17217312 20.45020313 30.5011364 22.31785758 32.16015625 24.51171875 C32.78857422 25.35154297 33.41699219 26.19136719 34.06445312 27.05664062 C35.05348633 28.35891602 35.05348633 28.35891602 36.0625 29.6875 C37.36785334 31.41909116 38.67134739 33.15208607 39.97265625 34.88671875 C40.55281494 35.65201904 41.13297363 36.41731934 41.73071289 37.20581055 C43 39 43 39 43 40 C31.14701097 40.78094364 31.14701097 40.78094364 27.0625 38 C26.381875 37.01 25.70125 36.02 25 35 C23.8984302 33.56050903 22.79415191 32.12308762 21.6875 30.6875 C20.78765704 29.46126564 19.89040537 28.23310435 19 27 C18.01 27.845625 17.02 28.69125 16 29.5625 C15.36578125 30.10261719 14.7315625 30.64273437 14.078125 31.19921875 C12.65490018 32.43250191 11.24928929 33.68632494 9.859375 34.95703125 C9.16328125 35.58996094 8.4671875 36.22289062 7.75 36.875 C7.10546875 37.47054687 6.4609375 38.06609375 5.796875 38.6796875 C4 40 4 40 1 40 C2.60380911 34.63452951 6.21449025 31.67186834 10.27539062 28.10546875 C11.97553657 26.57991651 11.97553657 26.57991651 14 24 C14.11461887 19.67145218 11.80142795 16.9725502 9.25 13.625 C8.53328125 12.67109375 7.8165625 11.7171875 7.078125 10.734375 C6.39234375 9.83203125 5.7065625 8.9296875 5 8 C0 1.19047619 0 1.19047619 0 0 Z M8 3 C11.48639886 12.8076978 19.47147882 21.03871848 26 29 C26.57105469 29.70769531 27.14210938 30.41539063 27.73046875 31.14453125 C30.75612257 34.89851029 30.75612257 34.89851029 35 37 C31.84205212 28.18602607 24.96177852 20.88674498 19.25 13.5625 C18.79052979 12.97154541 18.33105957 12.38059082 17.85766602 11.77172852 C15.40723618 8.65798421 12.97257126 5.63007935 10 3 C9.34 3 8.68 3 8 3 Z " fill="#FFFFFF" transform="translate(0,0)"/>
</svg>
